<mxfile host="app.diagrams.net" modified="2021-08-29T02:39:26.943Z" agent="5.0 (Windows NT 10.0; Win64; x64) AppleWebKit/537.36 (KHTML, like Gecko) Chrome/92.0.4515.159 Safari/537.36" etag="rm8_vMB7NOsodtOIoxIT" version="14.9.7" type="github">
  <diagram name="Page-1" id="822b0af5-4adb-64df-f703-e8dfc1f81529">
    <mxGraphModel dx="1422" dy="762" grid="1" gridSize="10" guides="1" tooltips="1" connect="1" arrows="1" fold="1" page="1" pageScale="1" pageWidth="1100" pageHeight="850" background="none" math="0" shadow="0">
      <root>
        <mxCell id="0" />
        <mxCell id="1" parent="0" />
        <mxCell id="bTWm2d5VxLN_Pe5OAAOp-1" style="edgeStyle=orthogonalEdgeStyle;rounded=0;orthogonalLoop=1;jettySize=auto;html=1;" edge="1" parent="1" source="Qj1fwdqKHC8h-Qbw6WAU-2" target="Qj1fwdqKHC8h-Qbw6WAU-115">
          <mxGeometry relative="1" as="geometry" />
        </mxCell>
        <mxCell id="bTWm2d5VxLN_Pe5OAAOp-2" style="edgeStyle=orthogonalEdgeStyle;rounded=0;orthogonalLoop=1;jettySize=auto;html=1;" edge="1" parent="1" source="Qj1fwdqKHC8h-Qbw6WAU-2" target="Qj1fwdqKHC8h-Qbw6WAU-100">
          <mxGeometry relative="1" as="geometry" />
        </mxCell>
        <mxCell id="bTWm2d5VxLN_Pe5OAAOp-13" style="edgeStyle=orthogonalEdgeStyle;rounded=0;orthogonalLoop=1;jettySize=auto;html=1;exitX=0;exitY=0.5;exitDx=0;exitDy=0;exitPerimeter=0;entryX=0.5;entryY=1;entryDx=0;entryDy=0;entryPerimeter=0;" edge="1" parent="1" source="Qj1fwdqKHC8h-Qbw6WAU-2" target="bTWm2d5VxLN_Pe5OAAOp-10">
          <mxGeometry relative="1" as="geometry" />
        </mxCell>
        <mxCell id="Qj1fwdqKHC8h-Qbw6WAU-2" value="" style="fillColor=#999999;verticalLabelPosition=bottom;html=1;strokeColor=#ffffff;verticalAlign=top;align=center;points=[[0.145,0.145,0],[0.5,0,0],[0.855,0.145,0],[1,0.5,0],[0.855,0.855,0],[0.5,1,0],[0.145,0.855,0],[0,0.5,0]];pointerEvents=1;shape=mxgraph.cisco_safe.compositeIcon;bgIcon=ellipse;resIcon=mxgraph.cisco_safe.capability.load_balancer;direction=south;" parent="1" vertex="1">
          <mxGeometry x="537" y="500" width="43" height="47.75" as="geometry" />
        </mxCell>
        <mxCell id="Qj1fwdqKHC8h-Qbw6WAU-15" value="" style="endArrow=none;dashed=1;html=1;dashPattern=1 3;strokeWidth=2;strokeColor=#67AB9F;" parent="1" edge="1">
          <mxGeometry width="50" height="50" relative="1" as="geometry">
            <mxPoint x="440" y="480" as="sourcePoint" />
            <mxPoint x="440" y="150" as="targetPoint" />
          </mxGeometry>
        </mxCell>
        <mxCell id="Qj1fwdqKHC8h-Qbw6WAU-16" value="" style="endArrow=none;dashed=1;html=1;dashPattern=1 3;strokeWidth=2;strokeColor=#67AB9F;" parent="1" edge="1">
          <mxGeometry width="50" height="50" relative="1" as="geometry">
            <mxPoint x="120" y="480" as="sourcePoint" />
            <mxPoint x="440" y="480" as="targetPoint" />
          </mxGeometry>
        </mxCell>
        <mxCell id="Qj1fwdqKHC8h-Qbw6WAU-17" value="" style="endArrow=none;dashed=1;html=1;dashPattern=1 3;strokeWidth=2;strokeColor=#67AB9F;" parent="1" edge="1">
          <mxGeometry width="50" height="50" relative="1" as="geometry">
            <mxPoint x="120" y="475" as="sourcePoint" />
            <mxPoint x="120" y="200" as="targetPoint" />
          </mxGeometry>
        </mxCell>
        <mxCell id="Qj1fwdqKHC8h-Qbw6WAU-18" value="" style="endArrow=none;dashed=1;html=1;dashPattern=1 3;strokeWidth=2;startArrow=none;strokeColor=#67AB9F;" parent="1" source="Qj1fwdqKHC8h-Qbw6WAU-19" edge="1">
          <mxGeometry width="50" height="50" relative="1" as="geometry">
            <mxPoint x="120" y="82.25" as="sourcePoint" />
            <mxPoint x="440" y="150" as="targetPoint" />
          </mxGeometry>
        </mxCell>
        <mxCell id="Qj1fwdqKHC8h-Qbw6WAU-19" value="Availability Zone A" style="text;html=1;strokeColor=#67AB9F;fillColor=none;align=center;verticalAlign=middle;whiteSpace=wrap;rounded=0;" parent="1" vertex="1">
          <mxGeometry x="120" y="140" width="120" height="20" as="geometry" />
        </mxCell>
        <mxCell id="Qj1fwdqKHC8h-Qbw6WAU-20" value="" style="endArrow=none;dashed=1;html=1;dashPattern=1 3;strokeWidth=2;entryX=0;entryY=0.5;entryDx=0;entryDy=0;strokeColor=#67AB9F;" parent="1" target="Qj1fwdqKHC8h-Qbw6WAU-19" edge="1">
          <mxGeometry width="50" height="50" relative="1" as="geometry">
            <mxPoint x="120" y="200" as="sourcePoint" />
            <mxPoint x="440" y="200" as="targetPoint" />
          </mxGeometry>
        </mxCell>
        <mxCell id="Qj1fwdqKHC8h-Qbw6WAU-34" value="" style="endArrow=none;dashed=1;html=1;dashPattern=1 3;strokeWidth=2;" parent="1" edge="1">
          <mxGeometry width="50" height="50" relative="1" as="geometry">
            <mxPoint x="130" y="210" as="sourcePoint" />
            <mxPoint x="130" y="210" as="targetPoint" />
          </mxGeometry>
        </mxCell>
        <mxCell id="Qj1fwdqKHC8h-Qbw6WAU-36" value="" style="endArrow=none;dashed=1;html=1;dashPattern=1 3;strokeWidth=2;strokeColor=#67AB9F;" parent="1" edge="1">
          <mxGeometry width="50" height="50" relative="1" as="geometry">
            <mxPoint x="1000" y="482.25" as="sourcePoint" />
            <mxPoint x="1000" y="150" as="targetPoint" />
          </mxGeometry>
        </mxCell>
        <mxCell id="Qj1fwdqKHC8h-Qbw6WAU-37" value="" style="endArrow=none;dashed=1;html=1;dashPattern=1 3;strokeWidth=2;strokeColor=#67AB9F;" parent="1" edge="1">
          <mxGeometry width="50" height="50" relative="1" as="geometry">
            <mxPoint x="680" y="482.25" as="sourcePoint" />
            <mxPoint x="1000" y="482.25" as="targetPoint" />
          </mxGeometry>
        </mxCell>
        <mxCell id="Qj1fwdqKHC8h-Qbw6WAU-38" value="" style="endArrow=none;dashed=1;html=1;dashPattern=1 3;strokeWidth=2;strokeColor=#67AB9F;" parent="1" edge="1">
          <mxGeometry width="50" height="50" relative="1" as="geometry">
            <mxPoint x="680" y="477.25" as="sourcePoint" />
            <mxPoint x="680" y="202.25" as="targetPoint" />
          </mxGeometry>
        </mxCell>
        <mxCell id="Qj1fwdqKHC8h-Qbw6WAU-39" value="" style="endArrow=none;dashed=1;html=1;dashPattern=1 3;strokeWidth=2;startArrow=none;strokeColor=#67AB9F;" parent="1" source="Qj1fwdqKHC8h-Qbw6WAU-40" edge="1">
          <mxGeometry width="50" height="50" relative="1" as="geometry">
            <mxPoint x="680" y="82.25" as="sourcePoint" />
            <mxPoint x="1000" y="147" as="targetPoint" />
            <Array as="points">
              <mxPoint x="950" y="147" />
            </Array>
          </mxGeometry>
        </mxCell>
        <mxCell id="Qj1fwdqKHC8h-Qbw6WAU-40" value="Availability Zone B" style="text;html=1;strokeColor=#67AB9F;fillColor=none;align=center;verticalAlign=middle;whiteSpace=wrap;rounded=0;" parent="1" vertex="1">
          <mxGeometry x="680" y="140" width="120" height="20" as="geometry" />
        </mxCell>
        <mxCell id="Qj1fwdqKHC8h-Qbw6WAU-41" value="" style="endArrow=none;dashed=1;html=1;dashPattern=1 3;strokeWidth=2;entryX=0;entryY=1;entryDx=0;entryDy=0;strokeColor=#67AB9F;" parent="1" target="Qj1fwdqKHC8h-Qbw6WAU-40" edge="1">
          <mxGeometry width="50" height="50" relative="1" as="geometry">
            <mxPoint x="680" y="202.25" as="sourcePoint" />
            <mxPoint x="1000" y="202.25" as="targetPoint" />
          </mxGeometry>
        </mxCell>
        <mxCell id="Qj1fwdqKHC8h-Qbw6WAU-77" value="" style="endArrow=none;dashed=1;html=1;strokeColor=#000000;" parent="1" edge="1">
          <mxGeometry width="50" height="50" relative="1" as="geometry">
            <mxPoint x="140" y="110" as="sourcePoint" />
            <mxPoint x="140" y="110" as="targetPoint" />
          </mxGeometry>
        </mxCell>
        <mxCell id="Qj1fwdqKHC8h-Qbw6WAU-81" value="" style="endArrow=none;dashed=1;html=1;strokeColor=#000000;" parent="1" edge="1">
          <mxGeometry width="50" height="50" relative="1" as="geometry">
            <mxPoint x="142" y="410" as="sourcePoint" />
            <mxPoint x="142.34" y="274.29" as="targetPoint" />
          </mxGeometry>
        </mxCell>
        <mxCell id="Qj1fwdqKHC8h-Qbw6WAU-82" value="" style="endArrow=none;dashed=1;html=1;strokeColor=#000000;startArrow=none;" parent="1" source="Qj1fwdqKHC8h-Qbw6WAU-89" edge="1">
          <mxGeometry width="50" height="50" relative="1" as="geometry">
            <mxPoint x="142.34" y="274.29" as="sourcePoint" />
            <mxPoint x="422.34" y="274.29" as="targetPoint" />
          </mxGeometry>
        </mxCell>
        <mxCell id="Qj1fwdqKHC8h-Qbw6WAU-83" value="" style="endArrow=none;dashed=1;html=1;strokeColor=#000000;" parent="1" edge="1">
          <mxGeometry width="50" height="50" relative="1" as="geometry">
            <mxPoint x="422" y="410" as="sourcePoint" />
            <mxPoint x="422.34" y="274.29" as="targetPoint" />
          </mxGeometry>
        </mxCell>
        <mxCell id="Qj1fwdqKHC8h-Qbw6WAU-84" value="" style="endArrow=none;dashed=1;html=1;strokeColor=#000000;" parent="1" edge="1">
          <mxGeometry width="50" height="50" relative="1" as="geometry">
            <mxPoint x="144.5" y="410" as="sourcePoint" />
            <mxPoint x="424.5" y="410" as="targetPoint" />
          </mxGeometry>
        </mxCell>
        <mxCell id="Qj1fwdqKHC8h-Qbw6WAU-85" value="" style="endArrow=none;dashed=1;html=1;strokeColor=#000000;" parent="1" edge="1">
          <mxGeometry width="50" height="50" relative="1" as="geometry">
            <mxPoint x="700" y="380" as="sourcePoint" />
            <mxPoint x="700" y="280" as="targetPoint" />
          </mxGeometry>
        </mxCell>
        <mxCell id="Qj1fwdqKHC8h-Qbw6WAU-86" value="" style="endArrow=none;dashed=1;html=1;strokeColor=#000000;startArrow=none;" parent="1" edge="1">
          <mxGeometry width="50" height="50" relative="1" as="geometry">
            <mxPoint x="806" y="261" as="sourcePoint" />
            <mxPoint x="980" y="261" as="targetPoint" />
          </mxGeometry>
        </mxCell>
        <mxCell id="Qj1fwdqKHC8h-Qbw6WAU-87" value="" style="endArrow=none;dashed=1;html=1;strokeColor=#000000;" parent="1" edge="1">
          <mxGeometry width="50" height="50" relative="1" as="geometry">
            <mxPoint x="980" y="410" as="sourcePoint" />
            <mxPoint x="980" y="260" as="targetPoint" />
          </mxGeometry>
        </mxCell>
        <mxCell id="Qj1fwdqKHC8h-Qbw6WAU-88" value="" style="endArrow=none;dashed=1;html=1;strokeColor=#000000;" parent="1" edge="1">
          <mxGeometry width="50" height="50" relative="1" as="geometry">
            <mxPoint x="700" y="410" as="sourcePoint" />
            <mxPoint x="980" y="410" as="targetPoint" />
          </mxGeometry>
        </mxCell>
        <mxCell id="Qj1fwdqKHC8h-Qbw6WAU-89" value="Private Subnet" style="text;html=1;strokeColor=none;fillColor=none;align=center;verticalAlign=middle;whiteSpace=wrap;rounded=0;" parent="1" vertex="1">
          <mxGeometry x="130" y="270" width="120" height="10" as="geometry" />
        </mxCell>
        <mxCell id="Qj1fwdqKHC8h-Qbw6WAU-91" value="Private Subnet" style="text;html=1;strokeColor=none;fillColor=none;align=center;verticalAlign=middle;whiteSpace=wrap;rounded=0;" parent="1" vertex="1">
          <mxGeometry x="694.5" y="256.99" width="120" height="10" as="geometry" />
        </mxCell>
        <mxCell id="Qj1fwdqKHC8h-Qbw6WAU-97" value="ECS&lt;br&gt;Fargate" style="text;html=1;strokeColor=none;fillColor=none;align=center;verticalAlign=middle;whiteSpace=wrap;rounded=0;" parent="1" vertex="1">
          <mxGeometry x="180" y="319.5" width="40" height="20" as="geometry" />
        </mxCell>
        <mxCell id="Qj1fwdqKHC8h-Qbw6WAU-100" value="" style="pointerEvents=1;shadow=0;dashed=0;html=1;strokeColor=none;fillColor=#505050;labelPosition=center;verticalLabelPosition=bottom;verticalAlign=top;outlineConnect=0;align=center;shape=mxgraph.office.servers.cluster_server;direction=east;" parent="1" vertex="1">
          <mxGeometry x="340" y="310.5" width="49" height="59" as="geometry" />
        </mxCell>
        <mxCell id="Qj1fwdqKHC8h-Qbw6WAU-106" value="" style="endArrow=none;dashed=1;html=1;strokeColor=#000000;" parent="1" edge="1">
          <mxGeometry width="50" height="50" relative="1" as="geometry">
            <mxPoint x="700" y="410" as="sourcePoint" />
            <mxPoint x="700" y="260" as="targetPoint" />
          </mxGeometry>
        </mxCell>
        <mxCell id="Qj1fwdqKHC8h-Qbw6WAU-115" value="" style="pointerEvents=1;shadow=0;dashed=0;html=1;strokeColor=none;fillColor=#505050;labelPosition=center;verticalLabelPosition=bottom;verticalAlign=top;outlineConnect=0;align=center;shape=mxgraph.office.servers.cluster_server;direction=east;" parent="1" vertex="1">
          <mxGeometry x="730" y="300" width="49" height="59" as="geometry" />
        </mxCell>
        <mxCell id="Qj1fwdqKHC8h-Qbw6WAU-117" value="ECS&lt;br&gt;Fargate" style="text;html=1;strokeColor=none;fillColor=none;align=center;verticalAlign=middle;whiteSpace=wrap;rounded=0;opacity=50;" parent="1" vertex="1">
          <mxGeometry x="910" y="319.5" width="40" height="20" as="geometry" />
        </mxCell>
        <mxCell id="bTWm2d5VxLN_Pe5OAAOp-8" style="edgeStyle=orthogonalEdgeStyle;rounded=0;orthogonalLoop=1;jettySize=auto;html=1;exitX=0.5;exitY=1;exitDx=0;exitDy=0;exitPerimeter=0;" edge="1" parent="1" source="bTWm2d5VxLN_Pe5OAAOp-3" target="bTWm2d5VxLN_Pe5OAAOp-4">
          <mxGeometry relative="1" as="geometry" />
        </mxCell>
        <mxCell id="bTWm2d5VxLN_Pe5OAAOp-9" style="edgeStyle=orthogonalEdgeStyle;rounded=0;orthogonalLoop=1;jettySize=auto;html=1;exitX=0.5;exitY=0;exitDx=0;exitDy=0;exitPerimeter=0;" edge="1" parent="1" source="bTWm2d5VxLN_Pe5OAAOp-3" target="bTWm2d5VxLN_Pe5OAAOp-7">
          <mxGeometry relative="1" as="geometry" />
        </mxCell>
        <mxCell id="bTWm2d5VxLN_Pe5OAAOp-12" style="edgeStyle=orthogonalEdgeStyle;rounded=0;orthogonalLoop=1;jettySize=auto;html=1;exitX=1;exitY=0.5;exitDx=0;exitDy=0;exitPerimeter=0;entryX=0.5;entryY=0;entryDx=0;entryDy=0;entryPerimeter=0;" edge="1" parent="1" source="bTWm2d5VxLN_Pe5OAAOp-3" target="bTWm2d5VxLN_Pe5OAAOp-10">
          <mxGeometry relative="1" as="geometry" />
        </mxCell>
        <mxCell id="bTWm2d5VxLN_Pe5OAAOp-3" value="" style="fillColor=#999999;verticalLabelPosition=bottom;html=1;strokeColor=#ffffff;verticalAlign=top;align=center;points=[[0.145,0.145,0],[0.5,0,0],[0.855,0.145,0],[1,0.5,0],[0.855,0.855,0],[0.5,1,0],[0.145,0.855,0],[0,0.5,0]];pointerEvents=1;shape=mxgraph.cisco_safe.compositeIcon;bgIcon=ellipse;resIcon=mxgraph.cisco_safe.capability.load_balancer;direction=south;" vertex="1" parent="1">
          <mxGeometry x="537" y="80" width="43" height="47.75" as="geometry" />
        </mxCell>
        <mxCell id="bTWm2d5VxLN_Pe5OAAOp-4" value="" style="pointerEvents=1;shadow=0;dashed=0;html=1;strokeColor=none;fillColor=#505050;labelPosition=center;verticalLabelPosition=bottom;verticalAlign=top;outlineConnect=0;align=center;shape=mxgraph.office.servers.cluster_server;direction=east;" vertex="1" parent="1">
          <mxGeometry x="255.5" y="310.5" width="49" height="59" as="geometry" />
        </mxCell>
        <mxCell id="bTWm2d5VxLN_Pe5OAAOp-7" value="" style="pointerEvents=1;shadow=0;dashed=0;html=1;strokeColor=none;fillColor=#505050;labelPosition=center;verticalLabelPosition=bottom;verticalAlign=top;outlineConnect=0;align=center;shape=mxgraph.office.servers.cluster_server;direction=east;" vertex="1" parent="1">
          <mxGeometry x="820" y="291" width="49" height="59" as="geometry" />
        </mxCell>
        <mxCell id="bTWm2d5VxLN_Pe5OAAOp-10" value="" style="outlineConnect=0;dashed=0;verticalLabelPosition=bottom;verticalAlign=top;align=center;html=1;shape=mxgraph.aws3.api_gateway;fillColor=#D9A741;gradientColor=none;" vertex="1" parent="1">
          <mxGeometry x="520.25" y="256.99" width="76.5" height="93" as="geometry" />
        </mxCell>
        <mxCell id="bTWm2d5VxLN_Pe5OAAOp-14" value="OrgSettings" style="text;html=1;strokeColor=none;fillColor=none;align=center;verticalAlign=middle;whiteSpace=wrap;rounded=0;" vertex="1" parent="1">
          <mxGeometry x="260" y="380" width="40" height="20" as="geometry" />
        </mxCell>
        <mxCell id="bTWm2d5VxLN_Pe5OAAOp-17" value="Dealer" style="text;html=1;strokeColor=none;fillColor=none;align=center;verticalAlign=middle;whiteSpace=wrap;rounded=0;" vertex="1" parent="1">
          <mxGeometry x="344.5" y="280" width="40" height="20" as="geometry" />
        </mxCell>
        <mxCell id="bTWm2d5VxLN_Pe5OAAOp-22" value="API Gateway" style="text;html=1;strokeColor=none;fillColor=none;align=center;verticalAlign=middle;whiteSpace=wrap;rounded=0;" vertex="1" parent="1">
          <mxGeometry x="480.25" y="240" width="40" height="20" as="geometry" />
        </mxCell>
        <mxCell id="bTWm2d5VxLN_Pe5OAAOp-24" value="Application Load Balancer for OrgSettings Microservice" style="text;html=1;strokeColor=none;fillColor=none;align=center;verticalAlign=middle;whiteSpace=wrap;rounded=0;" vertex="1" parent="1">
          <mxGeometry x="440" y="30" width="210" height="20" as="geometry" />
        </mxCell>
        <mxCell id="bTWm2d5VxLN_Pe5OAAOp-26" value="OrgSettings" style="text;html=1;strokeColor=none;fillColor=none;align=center;verticalAlign=middle;whiteSpace=wrap;rounded=0;" vertex="1" parent="1">
          <mxGeometry x="739" y="271" width="40" height="20" as="geometry" />
        </mxCell>
        <mxCell id="bTWm2d5VxLN_Pe5OAAOp-28" value="Dealer" style="text;html=1;strokeColor=none;fillColor=none;align=center;verticalAlign=middle;whiteSpace=wrap;rounded=0;" vertex="1" parent="1">
          <mxGeometry x="824.5" y="369.5" width="40" height="20" as="geometry" />
        </mxCell>
        <mxCell id="bTWm2d5VxLN_Pe5OAAOp-31" style="edgeStyle=orthogonalEdgeStyle;rounded=0;orthogonalLoop=1;jettySize=auto;html=1;entryX=1.003;entryY=0.731;entryDx=0;entryDy=0;entryPerimeter=0;" edge="1" parent="1" source="bTWm2d5VxLN_Pe5OAAOp-30" target="bTWm2d5VxLN_Pe5OAAOp-10">
          <mxGeometry relative="1" as="geometry" />
        </mxCell>
        <mxCell id="bTWm2d5VxLN_Pe5OAAOp-30" value="" style="aspect=fixed;html=1;points=[];align=center;image;fontSize=12;image=img/lib/azure2/networking/DNS_Zones.svg;" vertex="1" parent="1">
          <mxGeometry x="596.75" y="160" width="64" height="64" as="geometry" />
        </mxCell>
        <mxCell id="bTWm2d5VxLN_Pe5OAAOp-32" value="Route 53" style="text;html=1;strokeColor=none;fillColor=none;align=center;verticalAlign=middle;whiteSpace=wrap;rounded=0;" vertex="1" parent="1">
          <mxGeometry x="608.75" y="127.75" width="40" height="20" as="geometry" />
        </mxCell>
        <mxCell id="bTWm2d5VxLN_Pe5OAAOp-33" value="Application Load Balancer for Dealer Microservice" style="text;html=1;strokeColor=none;fillColor=none;align=center;verticalAlign=middle;whiteSpace=wrap;rounded=0;" vertex="1" parent="1">
          <mxGeometry x="453.5" y="570" width="196.5" height="20" as="geometry" />
        </mxCell>
      </root>
    </mxGraphModel>
  </diagram>
</mxfile>
